# xmcd CD database file
#
# Track frame offsets:
#	150
#	15514
#	31868
#	53819
#	72254
#	101301
#	126514
#	143623
#	179332
#	193179
#	220180
#
# Disc length: 3193 seconds
#
# Revision: 0
# Processed by: cddbd v1.5.2PL0 Copyright (c) Steve Scherf et al.
# Submitted via: CDex 1.51
#
DISCID=970c770b
DTITLE=Dave Douglas - Spirit Moves
DYEAR=2008
DGENRE=Jazz
TTITLE0=This Love Affair
TTITLE1=Orujo
TTITLE2=The View From Blue Mountain
TTITLE3=Twilight of the Dogs
TTITLE4=Bowie
TTITLE5=Rava
TTITLE6=Fats
TTITLE7=The Brass Ring
TTITLE8=Mister Pitiful
TTITLE9=Great Awakening
TTITLE10=I'm So Lonesome I Could Cry
EXTD=YEAR: 2008
EXTT0=
EXTT1=
EXTT2=
EXTT3=
EXTT4=
EXTT5=
EXTT6=
EXTT7=
EXTT8=
EXTT9=
EXTT10=
PLAYORDER=
